# xmcd
#
# Track frame offsets:
#	150
#	13452
#	28294
#	39127
#	52092
#	64234
#	77959
#	94309
#	105929
#	117914
#	142726
#	158743
#	178361
#	193561
#	207632
#	222267
#	234143
#	246624
#
# Disc length: 3484 seconds
#
# Revision: 0
# Processed by: cddbd v1.5.2PL0 Copyright (c) Steve Scherf et al.
# Submitted via: EasyCDDAExtractor 10.0.5.1
#
DISCID=070d9a12
DTITLE=Various Artist - 情．深．緣 2 - 至愛動人回憶CD3
DYEAR=2004
DGENRE=Oldies
TTITLE0=蔡琴 - 情人的眼淚
TTITLE1=甄妮 - 天涯芳草
TTITLE2=青山 - 淚的小花
TTITLE3=謝雷 - 蔓莉
TTITLE4=美黛 - 高山青
TTITLE5=潘安邦 - 外婆的澎湖灣
TTITLE6=紫薇 - 天涯歌女
TTITLE7=劉家昌 - 梅蘭梅蘭我愛你
TTITLE8=尤雅 - 好春宵
TTITLE9=姚蘇蓉 - 秋水伊人
TTITLE10=甄妮 - 嚮往
TTITLE11=青山/美黛 - 蘇州河邊
TTITLE12=歐陽菲菲 - 愛的路上我和你
TTITLE13=陳盈潔 - 家家有本難唸的經
TTITLE14=翁倩玉 - 戀愛的路多麼甜
TTITLE15=張琍敏 - 郎如春日風
TTITLE16=費玉清 - 田園之歌
TTITLE17=陳淑樺 - 思念總在分手後
EXTD=
EXTT0=
EXTT1=
EXTT2=
EXTT3=
EXTT4=
EXTT5=
EXTT6=
EXTT7=
EXTT8=
EXTT9=
EXTT10=
EXTT11=
EXTT12=
EXTT13=
EXTT14=
EXTT15=
EXTT16=
EXTT17=
PLAYORDER=
